<svg id="Capa_1" enable-background="new 0 0 512 512" height="512" viewBox="0 0 512 512" width="512" xmlns="http://www.w3.org/2000/svg"><g><g><path d="m512 117.593h-512v-64.52c0-11.495 9.318-20.813 20.813-20.813h470.374c11.495 0 20.813 9.318 20.813 20.813z" fill="#80b4fb"/></g><g><circle cx="444.358" cy="74.927" fill="#a2f4c1" r="12.488"/></g><g><circle cx="401.691" cy="74.927" fill="#ffe07d" r="12.488"/></g><g><circle cx="359.024" cy="74.927" fill="#e278b1" r="12.488"/></g><g><path d="m491.187 32.26h-31.22c11.495 0 20.813 9.318 20.813 20.813v64.52h31.22v-64.52c0-11.495-9.318-20.813-20.813-20.813z" fill="#61a2f9"/></g><g><path d="m0 117.593h512v341.333c0 11.495-9.318 20.813-20.813 20.813h-470.374c-11.495.001-20.813-9.317-20.813-20.812z" fill="#e4f6ff"/></g><g><path d="m480.78 117.593v341.333c0 11.495-9.318 20.813-20.813 20.813h31.22c11.495 0 20.813-9.318 20.813-20.813v-341.333z" fill="#b9e4ef"/></g><g><g><g><path d="m423.649 446.439h-245.802c-5.69 0-10.302-4.612-10.302-10.302v-127.169c0-5.69 4.612-10.302 10.302-10.302h256.105v137.471c-.001 5.69-4.613 10.302-10.303 10.302z" fill="#80b4fb"/></g></g><g><g><circle cx="433.951" cy="301.789" fill="#dd5ca2" r="46.829"/></g></g></g><g><path d="m100.943 178.014v-20.939c0-3.414 2.767-6.181 6.181-6.181h297.752c3.414 0 6.181 2.767 6.181 6.181v20.939c0 3.414-2.767 6.181-6.181 6.181h-297.752c-3.414 0-6.181-2.767-6.181-6.181z" fill="#845caf"/></g><g><path d="m269.79 410.41-29.086-77.071c-.026-.071-.054-.141-.082-.211-1.471-3.576-4.918-5.885-8.784-5.885-.003 0-.005 0-.008 0-3.869.003-7.317 2.318-8.783 5.9-.024.059-.048.118-.07.178l-29.352 77.067c-1.519 3.988.483 8.452 4.471 9.97.904.345 1.834.508 2.748.508 3.113 0 6.047-1.896 7.221-4.978l5.415-14.218h36.495l5.357 14.196c1.506 3.992 5.966 6.009 9.957 4.501 3.993-1.507 6.008-5.965 4.501-9.957zm-50.424-24.192 12.446-32.678 12.332 32.678z" fill="#e4f6ff"/><g><g><path d="m385.93 420.745c-8.835 0-17.135-3.568-22.773-9.79-2.865-3.162-2.625-8.048.537-10.913s8.048-2.625 10.913.537c2.675 2.952 6.907 4.714 11.322 4.714 4.232 0 6.655-2.527 6.961-4.234.355-1.991-2.549-3.819-5.386-4.865-7.637-2.817-14.422-5.837-14.706-5.964-.372-.166-.73-.361-1.072-.584-5.689-3.71-8.621-10.212-7.65-16.971 1.028-7.161 6.238-12.988 13.6-15.206 11.329-3.413 21.881 2.005 26.331 5.744 3.266 2.745 3.688 7.619.943 10.886-2.73 3.249-7.567 3.685-10.834.986-.204-.162-5.957-4.634-11.983-2.82-1.586.478-2.592 1.428-2.761 2.606-.066.465-.023 1.085.48 1.58 1.93.842 7.278 3.135 13.001 5.245 13.276 4.897 16.583 14.616 15.25 22.079-1.757 9.833-11.082 16.97-22.173 16.97z" fill="#e4f6ff"/></g></g><path d="m337.171 331.81c-4.268 0-7.726 3.459-7.726 7.726v21.261c-4.925-3.031-10.718-4.784-16.913-4.784-17.847 0-32.366 14.519-32.366 32.366s14.519 32.366 32.366 32.366c6.396 0 12.36-1.872 17.386-5.087 1.079 2.966 3.915 5.087 7.254 5.087 4.268 0 7.726-3.459 7.726-7.726v-73.482c-.001-4.268-3.459-7.727-7.727-7.727zm-24.64 73.482c-9.326 0-16.913-7.588-16.913-16.913s7.588-16.913 16.913-16.913 16.913 7.587 16.913 16.913-7.587 16.913-16.913 16.913z" fill="#e4f6ff"/></g><path d="m444.878 301.788 4.103-4.103c3.017-3.018 3.017-7.91-.001-10.927-3.016-3.017-7.908-3.017-10.927.001l-4.102 4.102-4.102-4.102c-3.018-3.017-7.909-3.017-10.928 0-3.017 3.017-3.017 7.909 0 10.927l4.103 4.103-4.102 4.103c-3.018 3.017-3.018 7.909-.001 10.927 1.509 1.509 3.486 2.263 5.464 2.263 1.977 0 3.955-.755 5.463-2.263l4.103-4.103 4.103 4.103c1.509 1.509 3.486 2.263 5.464 2.263 1.977 0 3.955-.755 5.463-2.263 3.018-3.017 3.018-7.909.001-10.927z" fill="#c3247d"/><g><path d="m303.87 273.092h-270.569c-4.268 0-7.726-3.459-7.726-7.726s3.459-7.726 7.726-7.726h270.569c4.268 0 7.726 3.459 7.726 7.726.001 4.267-3.458 7.726-7.726 7.726z" fill="#93d8e4"/></g><g><path d="m303.87 239.791h-197.724c-4.268 0-7.726-3.459-7.726-7.726s3.459-7.726 7.726-7.726h197.724c4.268 0 7.726 3.459 7.726 7.726s-3.458 7.726-7.726 7.726z" fill="#93d8e4"/></g><g><path d="m134.243 306.393h-100.942c-4.268 0-7.726-3.459-7.726-7.726s3.459-7.726 7.726-7.726h100.943c4.268 0 7.726 3.459 7.726 7.726s-3.459 7.726-7.727 7.726z" fill="#93d8e4"/></g><g><path d="m134.243 339.694h-100.942c-4.268 0-7.726-3.459-7.726-7.726s3.459-7.726 7.726-7.726h100.943c4.268 0 7.726 3.459 7.726 7.726 0 4.266-3.459 7.726-7.727 7.726z" fill="#93d8e4"/></g><g><path d="m82.211 372.994h-48.91c-4.268 0-7.726-3.459-7.726-7.726s3.459-7.726 7.726-7.726h48.91c4.268 0 7.726 3.459 7.726 7.726.001 4.267-3.458 7.726-7.726 7.726z" fill="#93d8e4"/></g></g></svg>