<svg id="Capa_1" enable-background="new 0 0 512 512" height="512" viewBox="0 0 512 512" width="512" xmlns="http://www.w3.org/2000/svg"><g><path d="m491.232 349.761h-470.464c-11.47 0-20.768-9.298-20.768-20.768v-280.822c0-11.47 9.298-20.768 20.768-20.768h470.464c11.47 0 20.768 9.298 20.768 20.768v280.823c0 11.469-9.298 20.767-20.768 20.767z" fill="#365e7d"/><path d="m491.232 27.403h-19.598c11.47 0 20.768 9.298 20.768 20.768v280.822c0 11.47-9.298 20.768-20.768 20.768h19.598c11.47 0 20.768-9.298 20.768-20.768v-280.822c0-11.47-9.298-20.768-20.768-20.768z" fill="#2b4d66"/><path d="m30.905 316.737v-256.31c0-1.17.949-2.119 2.119-2.119h445.951c1.17 0 2.119.949 2.119 2.119v256.31c0 1.17-.949 2.119-2.119 2.119h-445.951c-1.17 0-2.119-.949-2.119-2.119z" fill="#cbe2ff"/><path d="m478.975 58.308h-23.05c1.17 0 2.119.949 2.119 2.119v256.31c0 1.171-.949 2.119-2.119 2.119h23.05c1.17 0 2.119-.949 2.119-2.119v-256.31c0-1.171-.948-2.119-2.119-2.119z" fill="#bed8fb"/><path d="m30.905 94.168h450.189v116.119h-450.189z" fill="#f9f6f9"/><path d="m458.044 94.168h23.05v116.119h-23.05z" fill="#dddaec"/><circle cx="74.313" cy="135.894" fill="#ffd064" r="14.784"/><path d="m366.493 210.288h-46.67l51.509-116.12h46.671z" fill="#ffd064"/><path d="m366.493 210.288h30.844l51.509-116.12h-30.843z" fill="#95d6a4"/><g><g><path d="m124.481 128.837h-15.169c-4.268 0-7.726-3.459-7.726-7.726 0-4.268 3.459-7.726 7.726-7.726h15.169c4.268 0 7.726 3.459 7.726 7.726s-3.459 7.726-7.726 7.726z" fill="#2b4d66"/></g><g><path d="m306.361 157.696h-197.049c-4.268 0-7.726-3.459-7.726-7.726 0-4.268 3.459-7.726 7.726-7.726h197.049c4.268 0 7.726 3.459 7.726 7.726s-3.459 7.726-7.726 7.726z" fill="#2b4d66"/></g><g><path d="m285.757 186.556h-227.955c-4.268 0-7.726-3.459-7.726-7.726s3.459-7.726 7.726-7.726h227.955c4.268 0 7.726 3.459 7.726 7.726s-3.458 7.726-7.726 7.726z" fill="#2b4d66"/></g><g><path d="m327.716 128.837h-176.446c-4.268 0-7.726-3.459-7.726-7.726 0-4.268 3.459-7.726 7.726-7.726h176.446c4.268 0 7.726 3.459 7.726 7.726s-3.458 7.726-7.726 7.726z" fill="#2b4d66"/></g></g><path d="m292.531 284.33h-73.063c-3.947 0-7.146-3.199-7.146-7.146v-24.897c0-3.947 3.199-7.146 7.146-7.146h73.063c3.947 0 7.146 3.199 7.146 7.146v24.897c0 3.946-3.199 7.146-7.146 7.146z" fill="#95d6a4"/><path d="m292.531 245.14h-21.122c3.947 0 7.146 3.199 7.146 7.146v24.897c0 3.947-3.199 7.146-7.146 7.146h21.122c3.947 0 7.146-3.199 7.146-7.146v-24.897c0-3.946-3.199-7.146-7.146-7.146z" fill="#78c2a4"/><path d="m319.21 349.761c-15.14 0-111.248 0-126.42 0 17.207 33.033 1.534 77.646-20.604 99.098h167.627c-22.137-21.451-37.81-66.065-20.603-99.098z" fill="#81a7c6"/><path d="m199.117 369.021h113.766c1.102-6.669 3.151-13.162 6.327-19.26-15.14 0-111.248 0-126.42 0 3.176 6.098 5.225 12.592 6.327 19.26z" fill="#5c90b9"/><path d="m374.574 484.597h-237.148c-3.689 0-6.679-2.99-6.679-6.679v-16.277c0-7.06 5.723-12.783 12.783-12.783h224.94c7.06 0 12.783 5.723 12.783 12.783v16.277c-.001 3.689-2.991 6.679-6.679 6.679z" fill="#365e7d"/><path d="m368.47 448.859h-23.244c7.06 0 12.783 5.723 12.783 12.783v22.955h16.565c3.689 0 6.679-2.99 6.679-6.679v-16.276c-.001-7.06-5.724-12.783-12.783-12.783z" fill="#2b4d66"/><g><path d="m256 407.037c-4.268 0-7.726-3.459-7.726-7.726v-9.172c0-4.268 3.459-7.726 7.726-7.726s7.726 3.459 7.726 7.726v9.172c0 4.267-3.459 7.726-7.726 7.726z" fill="#2b4d66"/></g></g></svg>