<svg id="flat" height="512" viewBox="0 0 512 512" width="512" xmlns="http://www.w3.org/2000/svg"><path d="m432 142.62988v329.37012a15.99564 15.99564 0 0 1 -16 16h-320a15.99564 15.99564 0 0 1 -16-16v-432a15.99548 15.99548 0 0 1 16-16h217.37012a16.14406 16.14406 0 0 1 11.31982 4.68994l102.62012 102.62012a16.14406 16.14406 0 0 1 4.68994 11.31982z" fill="#ffc431"/><path d="m430.55005 136h-94.55005a15.99564 15.99564 0 0 1 -16-16v-94.55a15.82658 15.82658 0 0 1 4.68994 3.24l102.62012 102.62006a15.82658 15.82658 0 0 1 3.23999 4.68994z" fill="#ffe28f"/><path d="m120 80h64v64h-64z" fill="#ffa100"/><g fill="#ffb401"><path d="m248 80h40v16h-40z"/><path d="m216 80h16v16h-16z"/><path d="m216 128h72v16h-72z"/><path d="m184 176h24v16h-24z"/><path d="m336 176h64v16h-64z"/><path d="m224 176h96v16h-96z"/><path d="m112 224h24v16h-24z"/><path d="m280 224h120v16h-120z"/><path d="m152 224h112v16h-112z"/><path d="m112 272h72v16h-72z"/><path d="m368 272h32v16h-32z"/><path d="m200 272h152v16h-152z"/><path d="m112 320h32v16h-32z"/><path d="m312 320h88v16h-88z"/><path d="m160 320h136v16h-136z"/><path d="m112 368h64v16h-64z"/><path d="m352 368h48v16h-48z"/><path d="m232 368h104v16h-104z"/><path d="m192 368h24v16h-24z"/><path d="m112 416h40v16h-40z"/><path d="m168 416h96v16h-96z"/></g></svg>