<svg id="Capa_1" enable-background="new 0 0 512 512" height="512" viewBox="0 0 512 512" width="512" xmlns="http://www.w3.org/2000/svg"><g><g><g><g><g><g><g><g><g><path d="m332.937 20.749c0-5.995-2.615-11.374-6.764-15.073-.791-.705-.542-1.999.447-2.378.048.033.094.069.142.102-3.121-2.141-6.896-3.4-10.968-3.4h-278.014c-10.724 0-19.417 8.693-19.417 19.417v412.354c0 10.724 8.693 19.417 19.417 19.417h278.015c10.724 0 19.417-8.693 19.417-19.417v-370.959h-2.275z" fill="#fbbe66"/></g><path d="m335.212 19.417c0-6.715-3.41-12.632-8.591-16.119l-131.298 50.399c-11.165 4.286-18.535 15.009-18.535 26.968v3.326h158.425v-64.574z" fill="#fcb143"/></g></g><path d="m430.346 60.812h-234.141c-10.724 0-19.417 8.693-19.417 19.417v412.354c0 10.724 8.693 19.417 19.417 19.417h240.625c10.724 0 19.417-8.693 19.417-19.417v-399.703l-21.541-21.541c-2.792-2.792-4.36-6.579-4.36-10.527z" fill="#fbe77b"/><path d="m485.184 121.816-33.437-33.436v404.203c0 10.724-8.693 19.417-19.417 19.417h41.89c10.724 0 19.417-8.693 19.417-19.417v-368.48z" fill="#fcdd2e"/><path d="m449.763 124.103c-10.724 0-19.417-8.693-19.417-19.417v-43.874l63.291 63.291z" fill="#d5b0ec"/></g></g><g><g><g><path d="m228.509 294.027h213.406c5.43 0 9.832-4.402 9.832-9.832v-110.735c0-5.43-4.402-9.832-9.832-9.832h-213.406c-5.43 0-9.832 4.402-9.832 9.832v110.735c0 5.43 4.402 9.832 9.832 9.832z" fill="#f9f6f6"/></g><path d="m228.509 294.027h151.673l-67.642-81.502c-5.595-6.741-15.938-6.741-21.532 0l-66.808 80.497c1.303.637 2.762 1.005 4.309 1.005z" fill="#61a2f9"/><path d="m441.915 294.027c1.621 0 3.145-.399 4.493-1.093l-47.59-57.341c-5.595-6.741-15.938-6.741-21.532 0l-48.498 58.435h113.127z" fill="#9dc6fb"/></g></g><g><path d="m450.663 355.546h-230.71c-4.269 0-7.729-3.461-7.729-7.729s3.461-7.729 7.729-7.729h230.71c4.269 0 7.729 3.461 7.729 7.729s-3.46 7.729-7.729 7.729z" fill="#eff3f5"/></g><g><path d="m450.663 397.799h-230.71c-4.269 0-7.729-3.461-7.729-7.729s3.461-7.729 7.729-7.729h230.71c4.269 0 7.729 3.461 7.729 7.729s-3.46 7.729-7.729 7.729z" fill="#eff3f5"/></g><g><path d="m389.602 440.053h-169.65c-4.269 0-7.729-3.461-7.729-7.729s3.461-7.729 7.729-7.729h169.65c4.269 0 7.729 3.461 7.729 7.729s-3.459 7.729-7.729 7.729z" fill="#eff3f5"/></g></g><path d="m176.788 173.529h-118.581c-3.268 0-5.916-2.649-5.916-5.916v-69.239c0-3.268 2.649-5.916 5.916-5.916h118.58v81.071z" fill="#f9f6f6"/><path d="m134.898 92.457h41.89v81.071h-41.89z" fill="#e7ecf1"/><path d="m176.788 290.815h-118.581c-3.268 0-5.916-2.649-5.916-5.916v-69.239c0-3.268 2.649-5.916 5.916-5.916h118.58v81.071z" fill="#f9f6f6"/><path d="m134.898 209.744h41.89v81.071h-41.89z" fill="#e7ecf1"/></g></g><g fill="#eff3f5"><path d="m176.788 361.214h-124.497c-4.269 0-7.729 3.461-7.729 7.729s3.461 7.729 7.729 7.729h124.497z"/><path d="m176.788 321.881h-124.497c-4.269 0-7.729 3.461-7.729 7.729s3.461 7.729 7.729 7.729h124.497z"/></g></g></svg>